<svg x="0" y="0" width="2160" height="1042" viewBox="0 0 2160 1042" xmlns="http://www.w3.org/2000/svg" xmlns:xlink="http://www.w3.org/1999/xlink" xmlns:fi="http://pattern.flaticon.com/"><rect x="0px" y="0px" width="100%" height="100%" opacity="1" fill="#ebf8ff"/><defs><g transform="matrix(0.049624085426330566 0.035028766840696335 -0.035028766840696335 0.049624085426330566 320.2635803222656 251.32882690429688)" id="L1_9"><path d="M467,28.355H45c-24.813,0-45,20.187-45,45v278.273c0,24.813,20.187,45,45,45h151.494v57.016h-22.587    c-8.284,0-15,6.716-15,15s6.716,15,15,15h164.187c8.284,0,15-6.716,15-15s-6.716-15-15-15h-22.587v-57.016H467    c24.813,0,45-20.187,45-45V73.355C512,48.542,491.813,28.355,467,28.355z M285.506,453.645h-59.012v-57.016h59.012V453.645z     M482,351.629c0,8.271-6.729,15-15,15H45c-8.271,0-15-6.729-15-15v-22.803h452V351.629z M482,298.826H30V73.355    c0-8.271,6.729-15,15-15h422c8.271,0,15,6.729,15,15V298.826z"/><path d="M182.275,216.892l-40.633-27.741l40.633-27.741c6.842-4.671,8.602-14.004,3.931-20.846    c-4.67-6.841-14.004-8.601-20.846-3.931l-58.779,40.129c-4.094,2.795-6.542,7.432-6.542,12.388s2.448,9.595,6.542,12.39    l58.779,40.129c2.587,1.767,5.531,2.613,8.444,2.613c4.79,0,9.498-2.29,12.402-6.544    C190.877,230.896,189.117,221.563,182.275,216.892z"/><path d="M405.419,176.764l-58.779-40.129c-6.841-4.67-16.174-2.91-20.846,3.931c-4.671,6.842-2.911,16.175,3.931,20.846    l40.633,27.741l-40.633,27.739c-6.842,4.671-8.602,14.004-3.931,20.846c2.905,4.255,7.611,6.544,12.402,6.544    c2.913,0,5.857-0.847,8.444-2.613l58.779-40.129c4.094-2.795,6.542-7.432,6.542-12.388S409.512,179.56,405.419,176.764z"/><path d="M293.458,122.516c-7.22-4.059-16.366-1.497-20.426,5.726l-60.218,107.123c-4.058,7.22-1.495,16.365,5.727,20.425    c2.324,1.307,4.847,1.927,7.336,1.927c5.244,0,10.336-2.755,13.089-7.652l60.218-107.123    C303.244,135.721,300.68,126.576,293.458,122.516z"/></g><g transform="matrix(0.03983599692583084 -0.02877044305205345 0.02877044305205345 0.03983599692583084 63.06004333496094 29.102622985839844)" id="L1_10"><path d="M325.762,70.513l-17.706-4.854c-2.279-0.76-4.524-0.521-6.707,0.715c-2.19,1.237-3.669,3.094-4.429,5.568L190.426,440.53    c-0.76,2.475-0.522,4.809,0.715,6.995c1.237,2.19,3.09,3.665,5.568,4.425l17.701,4.856c2.284,0.766,4.521,0.526,6.71-0.712    c2.19-1.243,3.666-3.094,4.425-5.564L332.042,81.936c0.759-2.474,0.523-4.808-0.716-6.999    C330.088,72.747,328.237,71.272,325.762,70.513z"/><path d="M166.167,142.465c0-2.474-0.953-4.665-2.856-6.567l-14.277-14.276c-1.903-1.903-4.093-2.857-6.567-2.857    s-4.665,0.955-6.567,2.857L2.856,254.666C0.95,256.569,0,258.759,0,261.233c0,2.474,0.953,4.664,2.856,6.566l133.043,133.044    c1.902,1.906,4.089,2.854,6.567,2.854s4.665-0.951,6.567-2.854l14.277-14.268c1.903-1.902,2.856-4.093,2.856-6.57    c0-2.471-0.953-4.661-2.856-6.563L51.107,261.233l112.204-112.201C165.217,147.13,166.167,144.939,166.167,142.465z"/><path d="M519.614,254.663L386.567,121.619c-1.902-1.902-4.093-2.857-6.563-2.857c-2.478,0-4.661,0.955-6.57,2.857l-14.271,14.275    c-1.902,1.903-2.851,4.09-2.851,6.567s0.948,4.665,2.851,6.567l112.206,112.204L359.163,373.442    c-1.902,1.902-2.851,4.093-2.851,6.563c0,2.478,0.948,4.668,2.851,6.57l14.271,14.268c1.909,1.906,4.093,2.854,6.57,2.854    c2.471,0,4.661-0.951,6.563-2.854L519.614,267.8c1.903-1.902,2.854-4.096,2.854-6.57    C522.468,258.755,521.517,256.565,519.614,254.663z"/></g><g transform="matrix(0.23820418119430542 0 0 0.23820418119430542 188.5405731201172 135.66661071777344)" id="L1_11"><path d="M44.794,46.987c0-0.53-0.211-1.039-0.586-1.414L11.444,12.812c-0.781-0.781-2.047-0.781-2.828,0l-8.03,8.029    C0.211,21.215,0,21.725,0,22.254c0,0.53,0.211,1.039,0.586,1.414l23.319,23.319L0.586,70.307C0.211,70.682,0,71.191,0,71.721    s0.211,1.039,0.586,1.414l8.03,8.029c0.391,0.391,0.902,0.586,1.414,0.586c0.512,0,1.023-0.195,1.414-0.586l32.764-32.764    C44.583,48.026,44.794,47.519,44.794,46.987z"/><path d="M92.834,69.811H41.98c-1.104,0-2,0.896-2,2v8.797c0,1.104,0.896,2,2,2h50.854c1.104,0,2-0.896,2-2v-8.797    C94.834,70.707,93.938,69.811,92.834,69.811z"/></g></defs><g fi:class="KUsePattern" opacity="0.08"><pattern id="pattern_L1_9" width="350" height="350" patternUnits="userSpaceOnUse"><use xlink:href="#L1_9" x="-350" y="-350"/><use xlink:href="#L1_9" x="0" y="-350"/><use xlink:href="#L1_9" x="350" y="-350"/><use xlink:href="#L1_9" x="-350" y="0"/><use xlink:href="#L1_9" x="0" y="0"/><use xlink:href="#L1_9" x="350" y="0"/><use xlink:href="#L1_9" x="-350" y="350"/><use xlink:href="#L1_9" x="0" y="350"/><use xlink:href="#L1_9" x="350" y="350"/></pattern><rect x="0" y="0" width="100%" height="100%" fill="url(#pattern_L1_9)"/></g><g fi:class="KUsePattern" opacity="0.08"><pattern id="pattern_L1_10" width="350" height="350" patternUnits="userSpaceOnUse"><use xlink:href="#L1_10" x="-350" y="-350"/><use xlink:href="#L1_10" x="0" y="-350"/><use xlink:href="#L1_10" x="350" y="-350"/><use xlink:href="#L1_10" x="-350" y="0"/><use xlink:href="#L1_10" x="0" y="0"/><use xlink:href="#L1_10" x="350" y="0"/><use xlink:href="#L1_10" x="-350" y="350"/><use xlink:href="#L1_10" x="0" y="350"/><use xlink:href="#L1_10" x="350" y="350"/></pattern><rect x="0" y="0" width="100%" height="100%" fill="url(#pattern_L1_10)"/></g><g fi:class="KUsePattern" opacity="0.08"><pattern id="pattern_L1_11" width="350" height="350" patternUnits="userSpaceOnUse"><use xlink:href="#L1_11" x="-350" y="-350"/><use xlink:href="#L1_11" x="0" y="-350"/><use xlink:href="#L1_11" x="350" y="-350"/><use xlink:href="#L1_11" x="-350" y="0"/><use xlink:href="#L1_11" x="0" y="0"/><use xlink:href="#L1_11" x="350" y="0"/><use xlink:href="#L1_11" x="-350" y="350"/><use xlink:href="#L1_11" x="0" y="350"/><use xlink:href="#L1_11" x="350" y="350"/></pattern><rect x="0" y="0" width="100%" height="100%" fill="url(#pattern_L1_11)"/></g></svg>